<svg id="Layer_1" data-name="Layer 1" xmlns="http://www.w3.org/2000/svg" viewBox="0 0 259.4 96.7"><defs><style>.cls-1{fill:#00a3e0;}.cls-2{fill:#007ce0;}.cls-3{fill:#0065a4;}.cls-4{fill:none;}</style></defs><title>Untitled-5</title><path class="cls-1" d="M222.12,193.73H167.58a14.92,14.92,0,0,1-12.84-22.53l39.58-66.85a14.93,14.93,0,0,1,25.69,0l14.43,24.37L209.28,171.2A14.92,14.92,0,0,0,222.12,193.73Z" transform="translate(-152.63 -97.03)"/><path class="cls-2" d="M301.3,193.73H246.76A14.92,14.92,0,0,0,259.6,171.2l-25.16-42.48,14.43-24.37a14.92,14.92,0,0,1,25.68,0l39.59,66.85A14.92,14.92,0,0,1,301.3,193.73Z" transform="translate(-152.63 -97.03)"/><path class="cls-3" d="M246.76,193.73H222.12a14.92,14.92,0,0,1-12.84-22.53l25.16-42.48L259.6,171.2A14.92,14.92,0,0,1,246.76,193.73Z" transform="translate(-152.63 -97.03)"/><path class="cls-4" d="M347.68,126.85a1,1,0,0,1,1.07.89h1.75c-1.16-3.15-1.78-4.73-2-5.52h0c-.27.89-1,2.83-1.9,5.52h.05A1,1,0,0,1,347.68,126.85Z" transform="translate(-152.63 -97.03)"/><path class="cls-4" d="M362.5,122.21H360v9.17h2.54c2.81,0,4.17-2,4.17-4.65C366.67,124.39,365.44,122.21,362.5,122.21Z" transform="translate(-152.63 -97.03)"/><path class="cls-4" d="M320.43,127a1,1,0,0,1,1,.77h.88c-1.16-3.15-1.78-4.73-2-5.52h0c-.28.89-1,2.83-1.9,5.52h1A1,1,0,0,1,320.43,127Z" transform="translate(-152.63 -97.03)"/><path class="cls-1" d="M319.66,121.21l-4,11.17h1.14l1.33-3.63.34-1c.93-2.69,1.62-4.63,1.9-5.52h0c.23.79.85,2.37,2,5.52l.33,1,1.36,3.63h1.23l-4.22-11.17Z" transform="translate(-152.63 -97.03)"/><path class="cls-1" d="M334.81,122a3,3,0,0,1,3.19,2.29h1.15a4,4,0,0,0-4.29-3.28c-3.32,0-5,2.75-5,5.77s1.69,5.7,5,5.7a4.14,4.14,0,0,0,4.3-3.2H338a3.09,3.09,0,0,1-3.12,2.2c-2.73,0-3.79-2.43-3.79-4.73S332.17,122,334.81,122Z" transform="translate(-152.63 -97.03)"/><path class="cls-1" d="M347.81,121.21l-4.05,11.17h1.15l1.32-3.63.34-1c.94-2.69,1.63-4.63,1.9-5.52h0c.23.79.85,2.37,2,5.52l.33,1,1.35,3.63h1.23l-4.22-11.17Z" transform="translate(-152.63 -97.03)"/><path class="cls-1" d="M362.66,121.21h-3.84v11.17h3.81c3.18,0,5.25-2.37,5.25-5.69S365.76,121.21,362.66,121.21Zm-.16,10.17H360v-9.17h2.54c2.94,0,4.17,2.18,4.17,4.52C366.67,129.39,365.31,131.38,362.5,131.38Z" transform="translate(-152.63 -97.03)"/><polygon class="cls-1" points="222.34 29.98 227.97 29.98 227.97 28.98 222.34 28.98 222.34 25.19 228.25 25.19 228.25 24.18 221.21 24.18 221.21 35.36 228.36 35.36 228.52 34.34 222.34 34.34 222.34 29.98"/><path class="cls-1" d="M392.1,131h0c-.4-1.33-2.16-6.1-3.57-9.77h-1.71v11.17h1.11v-4.62c0-1.91,0-4.46-.12-5.74h0c.51,1.78,2.64,7.57,3.66,10.36h1.07c1.35-3.52,3.41-8.71,3.87-10.35h.06c-.05,1.15-.07,3.25-.07,5.38v5h1.13V121.21h-1.67C394.42,124.77,392.36,130.05,392.1,131Z" transform="translate(-152.63 -97.03)"/><path class="cls-1" d="M407.35,127.08c-.49-.9-2.29-4-3.36-5.87h-1.32l4,6.75a.45.45,0,0,1,.07.27v4.15h1.16v-4.12a.45.45,0,0,1,.06-.26l4.11-6.79h-1.24C409.66,123.08,407.83,126.19,407.35,127.08Z" transform="translate(-152.63 -97.03)"/><path class="cls-1" d="M320.23,129" transform="translate(-152.63 -97.03)"/><line class="cls-1" x1="167.79" y1="31.95" x2="167.98" y2="31.95"/><path class="cls-1" d="M348.3,126.51l-1.19,2.07a.27.27,0,0,0,.23.4h2.39a.27.27,0,0,0,.23-.4l-1.19-2.07A.28.28,0,0,0,348.3,126.51Z" transform="translate(-152.63 -97.03)"/><path class="cls-1" d="M320.16,126.51,319,128.58a.26.26,0,0,0,.23.4h2.38a.26.26,0,0,0,.23-.4l-1.19-2.07A.27.27,0,0,0,320.16,126.51Z" transform="translate(-152.63 -97.03)"/><path class="cls-4" d="M354.74,156a1.05,1.05,0,0,1,1.07.89h.93c-1.16-3.14-1.78-4.72-2-5.52h0c-.28.89-1,2.83-1.91,5.52h.87A1,1,0,0,1,354.74,156Z" transform="translate(-152.63 -97.03)"/><path class="cls-4" d="M341.08,156.07h-2.59v4.46h3c1.44,0,2.55-.7,2.55-2.24C344,157,343.16,156.07,341.08,156.07Z" transform="translate(-152.63 -97.03)"/><path class="cls-4" d="M343.63,153.19c0-1.05-.74-1.86-2.19-1.86h-2.95v3.75h2.66C342.94,155.08,343.63,154.39,343.63,153.19Z" transform="translate(-152.63 -97.03)"/><path class="cls-1" d="M343.14,155.55a2.44,2.44,0,0,0,1.67-2.44c0-1.59-1.13-2.77-3.37-2.77h-4.07v11.18h4.15c2,0,3.67-1.07,3.67-3.25A2.79,2.79,0,0,0,343.14,155.55Zm-4.65-4.22h2.95c1.45,0,2.19.81,2.19,1.86s-.69,1.89-2.48,1.89h-2.66Zm3,9.2h-3v-4.46h2.59c2.08,0,2.93.9,2.93,2.22C344,159.83,342.9,160.53,341.46,160.53Z" transform="translate(-152.63 -97.03)"/><path class="cls-1" d="M354.05,150.34l-4,11.18h1.14l1.32-3.64.34-1c.94-2.69,1.63-4.63,1.91-5.52h0c.23.8.85,2.38,2,5.52l.33,1,1.36,3.64h1.23l-4.22-11.18Z" transform="translate(-152.63 -97.03)"/><path class="cls-1" d="M372.76,155.09c0,1.82,0,3.52.09,5h0c-.67-1.22-4.48-7.15-6.16-9.8h-1.59v11.18h1.12v-4.87c0-2,0-3.77-.07-5.15h0c.75,1.24,4.67,7.5,6.25,10h1.48V150.34h-1.12Z" transform="translate(-152.63 -97.03)"/><path class="cls-1" d="M384.09,155.08l4.91-4.74h-1.46c-1.89,1.89-4.92,4.8-5.79,5.66v-5.66h-1.13v11.18h1.13v-4.35l1.52-1.35,4.6,5.7h1.4Z" transform="translate(-152.63 -97.03)"/><path class="cls-1" d="M354.6,155.65l-1.19,2.06a.26.26,0,0,0,.23.4H356a.26.26,0,0,0,.23-.4l-1.19-2.06A.26.26,0,0,0,354.6,155.65Z" transform="translate(-152.63 -97.03)"/></svg>